# xmcd
#
# Track frame offsets:
#	150
#	13198
#	27683
#	39483
#	51299
#	67836
#	82194
#	94358
#	104230
#	117261
#	133217
#	147948
#	163766
#	180162
#	197604
#	209078
#	223619
#	234885
#	245945
#	258575
#	270962
#	283576
#	296554
#
# Disc length: 4184
#
# Revision: 2
# Processed by: cddbd v1.5.1PL0 Copyright (c) Steve Scherf et al.
# Submitted via: audiograbber 1.80
# Normalized: r1:DSETVAR2
#
DISCID=6c105617
DTITLE=Various Artist - Definitive Country
DYEAR=1900
DGENRE=
TTITLE0=Lynn Anderson - Rose Garden
TTITLE1=Glen Campbell - Rhinestone Cowboy
TTITLE2=Dolly Parton - Jolene
TTITLE3=Charlie Rich - The Most Beautiful Girl
TTITLE4=Don McLean - Crying
TTITLE5=Jeannie C. Riley - Harper Vally P.T.A.
TTITLE6=Merle Haggard - Okie From Muskogee
TTITLE7=Buck Owens - I've Got A Tiger By The Tail
TTITLE8=Tanya Tucker - Delta Dawn
TTITLE9=Joe South - Games People Play
TTITLE10=Olivia Newton - John
TTITLE11=Billy Jo Spears - Blanket On The Ground
TTITLE12=Gram Parsons and Emmylou Harris - Love Hurts
TTITLE13=Linda Ronstadt - Blue Bayou
TTITLE14=Bobbie Gentry and Glen Campbell - All I Have To Do Is Dream
TTITLE15=The Bellamy Brothers - Let Your Love Flow
TTITLE16=Crystal Gayle - Don't It make My Brown Eyes Blue
TTITLE17=Charlie Pride - Help Me make It Through The Night
TTITLE18=Patsy Cline - I Fall To Pieces
TTITLE19=Jim Reeves - I Love You Because
TTITLE20=Bobby Bare - Detroit City
TTITLE21=Bobbie Gentry - I'll Never Fall In Love Again
TTITLE22=Willie Nelson - Me And Paul
EXTD=
EXTT0=
EXTT1=
EXTT2=
EXTT3=
EXTT4=
EXTT5=
EXTT6=
EXTT7=
EXTT8=
EXTT9=
EXTT10=
EXTT11=
EXTT12=
EXTT13=
EXTT14=
EXTT15=
EXTT16=
EXTT17=
EXTT18=
EXTT19=
EXTT20=
EXTT21=
EXTT22=
PLAYORDER=
